<mxfile host="app.diagrams.net" modified="2021-09-12T15:01:28.908Z" agent="5.0 (X11; Linux x86_64) AppleWebKit/537.36 (KHTML, like Gecko) Chrome/92.0.4515.107 Safari/537.36" etag="ZNNW8_qQRXOUXNCS3qKv" version="14.8.5" type="github">
  <diagram id="7V3jgVvCaViCagQl5_-w" name="Page-1">
    <mxGraphModel dx="4008" dy="1412" grid="1" gridSize="10" guides="1" tooltips="1" connect="1" arrows="1" fold="1" page="1" pageScale="1" pageWidth="850" pageHeight="1100" math="0" shadow="0">
      <root>
        <mxCell id="0" />
        <mxCell id="1" parent="0" />
        <mxCell id="g-YcxbACr5zRO5TIdLJR-21" value="step: 1" style="swimlane;" vertex="1" parent="1">
          <mxGeometry x="330" y="40" width="170" height="1040" as="geometry" />
        </mxCell>
        <mxCell id="g-YcxbACr5zRO5TIdLJR-15" value="A: U" style="ellipse;whiteSpace=wrap;html=1;aspect=fixed;" vertex="1" parent="g-YcxbACr5zRO5TIdLJR-21">
          <mxGeometry x="45" y="400" width="80" height="80" as="geometry" />
        </mxCell>
        <mxCell id="g-YcxbACr5zRO5TIdLJR-17" value="A: N" style="ellipse;whiteSpace=wrap;html=1;aspect=fixed;" vertex="1" parent="g-YcxbACr5zRO5TIdLJR-21">
          <mxGeometry x="45" y="620" width="80" height="80" as="geometry" />
        </mxCell>
        <mxCell id="g-YcxbACr5zRO5TIdLJR-19" value="A: U" style="ellipse;whiteSpace=wrap;html=1;aspect=fixed;" vertex="1" parent="g-YcxbACr5zRO5TIdLJR-21">
          <mxGeometry x="45" y="920" width="80" height="80" as="geometry" />
        </mxCell>
        <mxCell id="g-YcxbACr5zRO5TIdLJR-13" value="A: N" style="ellipse;whiteSpace=wrap;html=1;aspect=fixed;" vertex="1" parent="g-YcxbACr5zRO5TIdLJR-21">
          <mxGeometry x="45" y="40" width="80" height="80" as="geometry" />
        </mxCell>
        <mxCell id="g-YcxbACr5zRO5TIdLJR-9" value="step: 0" style="swimlane;startSize=30;" vertex="1" parent="1">
          <mxGeometry x="40" y="40" width="290" height="1040" as="geometry" />
        </mxCell>
        <mxCell id="g-YcxbACr5zRO5TIdLJR-11" style="edgeStyle=none;rounded=0;orthogonalLoop=1;jettySize=auto;html=1;exitX=1;exitY=0;exitDx=0;exitDy=0;entryX=0;entryY=0.5;entryDx=0;entryDy=0;" edge="1" parent="g-YcxbACr5zRO5TIdLJR-9" source="g-YcxbACr5zRO5TIdLJR-1" target="g-YcxbACr5zRO5TIdLJR-4">
          <mxGeometry relative="1" as="geometry" />
        </mxCell>
        <mxCell id="g-YcxbACr5zRO5TIdLJR-1" value="A: N" style="ellipse;whiteSpace=wrap;html=1;aspect=fixed;" vertex="1" parent="g-YcxbACr5zRO5TIdLJR-9">
          <mxGeometry x="20" y="480" width="80" height="80" as="geometry" />
        </mxCell>
        <mxCell id="g-YcxbACr5zRO5TIdLJR-4" value="B: C" style="ellipse;whiteSpace=wrap;html=1;aspect=fixed;" vertex="1" parent="g-YcxbACr5zRO5TIdLJR-9">
          <mxGeometry x="180" y="200" width="80" height="80" as="geometry" />
        </mxCell>
        <mxCell id="g-YcxbACr5zRO5TIdLJR-6" value="B: N" style="ellipse;whiteSpace=wrap;html=1;aspect=fixed;" vertex="1" parent="g-YcxbACr5zRO5TIdLJR-9">
          <mxGeometry x="180" y="770" width="80" height="80" as="geometry" />
        </mxCell>
        <mxCell id="g-YcxbACr5zRO5TIdLJR-12" style="edgeStyle=none;rounded=0;orthogonalLoop=1;jettySize=auto;html=1;exitX=1;exitY=1;exitDx=0;exitDy=0;entryX=0;entryY=0.5;entryDx=0;entryDy=0;" edge="1" parent="g-YcxbACr5zRO5TIdLJR-9" source="g-YcxbACr5zRO5TIdLJR-1" target="g-YcxbACr5zRO5TIdLJR-6">
          <mxGeometry relative="1" as="geometry" />
        </mxCell>
        <mxCell id="g-YcxbACr5zRO5TIdLJR-16" value="" style="edgeStyle=none;rounded=0;orthogonalLoop=1;jettySize=auto;html=1;" edge="1" parent="1" source="g-YcxbACr5zRO5TIdLJR-4" target="g-YcxbACr5zRO5TIdLJR-15">
          <mxGeometry relative="1" as="geometry" />
        </mxCell>
        <mxCell id="g-YcxbACr5zRO5TIdLJR-24" value="" style="edgeStyle=none;rounded=0;orthogonalLoop=1;jettySize=auto;html=1;" edge="1" parent="1" source="g-YcxbACr5zRO5TIdLJR-13" target="g-YcxbACr5zRO5TIdLJR-23">
          <mxGeometry relative="1" as="geometry" />
        </mxCell>
        <mxCell id="g-YcxbACr5zRO5TIdLJR-14" value="" style="edgeStyle=none;rounded=0;orthogonalLoop=1;jettySize=auto;html=1;" edge="1" parent="1" source="g-YcxbACr5zRO5TIdLJR-4" target="g-YcxbACr5zRO5TIdLJR-13">
          <mxGeometry relative="1" as="geometry" />
        </mxCell>
        <mxCell id="g-YcxbACr5zRO5TIdLJR-18" value="" style="edgeStyle=none;rounded=0;orthogonalLoop=1;jettySize=auto;html=1;" edge="1" parent="1" source="g-YcxbACr5zRO5TIdLJR-6" target="g-YcxbACr5zRO5TIdLJR-17">
          <mxGeometry relative="1" as="geometry" />
        </mxCell>
        <mxCell id="g-YcxbACr5zRO5TIdLJR-20" value="" style="edgeStyle=none;rounded=0;orthogonalLoop=1;jettySize=auto;html=1;" edge="1" parent="1" source="g-YcxbACr5zRO5TIdLJR-6" target="g-YcxbACr5zRO5TIdLJR-19">
          <mxGeometry relative="1" as="geometry" />
        </mxCell>
        <mxCell id="g-YcxbACr5zRO5TIdLJR-22" value="step: 2" style="swimlane;" vertex="1" parent="1">
          <mxGeometry x="500" y="40" width="140" height="1040" as="geometry" />
        </mxCell>
        <mxCell id="g-YcxbACr5zRO5TIdLJR-23" value="B: C" style="ellipse;whiteSpace=wrap;html=1;aspect=fixed;" vertex="1" parent="g-YcxbACr5zRO5TIdLJR-22">
          <mxGeometry x="30" y="40" width="80" height="80" as="geometry" />
        </mxCell>
        <mxCell id="g-YcxbACr5zRO5TIdLJR-25" value="A: U" style="ellipse;whiteSpace=wrap;html=1;aspect=fixed;" vertex="1" parent="g-YcxbACr5zRO5TIdLJR-22">
          <mxGeometry x="30" y="160" width="80" height="80" as="geometry" />
        </mxCell>
        <mxCell id="g-YcxbACr5zRO5TIdLJR-26" value="" style="edgeStyle=none;rounded=0;orthogonalLoop=1;jettySize=auto;html=1;" edge="1" parent="1" source="g-YcxbACr5zRO5TIdLJR-13" target="g-YcxbACr5zRO5TIdLJR-25">
          <mxGeometry relative="1" as="geometry" />
        </mxCell>
      </root>
    </mxGraphModel>
  </diagram>
</mxfile>
